<?xml version="1.0" encoding="utf-8"?>
<!-- Generator: Adobe Illustrator 16.0.3, SVG Export Plug-In . SVG Version: 6.00 Build 0)  -->
<!DOCTYPE svg PUBLIC "-//W3C//DTD SVG 1.1//EN" "http://www.w3.org/Graphics/SVG/1.1/DTD/svg11.dtd">
<svg version="1.1" id="Warstwa_1" xmlns="http://www.w3.org/2000/svg" xmlns:xlink="http://www.w3.org/1999/xlink" x="0px" y="0px"
	 width="122px" height="30px" viewBox="0 0 122 30" enable-background="new 0 0 122 30" xml:space="preserve">
<g>
	<g>
		<path fill="#111111" d="M91.309,18.541v-7.01c0-4.536-3.715-5.369-7.509-5.369c-1.852,0-3.665,0.278-5.114,1.11
			c-1.173,0.678-2.036,1.693-2.366,3.17c-1.285-2.593-3.755-4.281-7.342-4.281c-2.765,0-5.256,1.208-6.846,3.191
			c-0.788-5.504-4.646-8.747-10.653-8.747h-9.479v22.178h9.479c4.361,0,7.62-1.718,9.367-4.862c1.16,3.361,4.202,5.22,8.248,5.22
			c2.664,0,5.229-0.907,6.771-2.889c0.766,1.944,2.729,2.861,5.117,2.861c1.944,0,3.922-0.457,5.275-1.908
			c0.094,0.524,0.094,0.871,0.312,1.578h5.277C91.227,21.371,91.309,19.899,91.309,18.541z M50.463,17.595h-2.568V5.56h2.568
			c3.949,0,6.077,1.851,6.077,5.892C56.54,15.868,54.812,17.595,50.463,17.595z M68.972,9.841c1.756,0,3.022,1.145,3.118,3.27
			h-6.515C65.918,10.986,67.118,9.841,68.972,9.841z M75.535,17.595h-3.387c-0.489,1.414-1.728,1.873-2.992,1.873
			c-2.221,0-3.486-1.402-3.581-3.525H76.05C75.768,16.412,75.587,16.885,75.535,17.595z M82.954,19.865
			c-1.203,0-2.189-0.494-2.189-1.82c0-1.266,0.953-1.76,2.161-2.035c1.139-0.339,2.499-0.402,3.236-0.865
			C86.289,18.478,85.456,19.865,82.954,19.865z M84.836,12.707c-2.345,0.475-5.532,0.56-7.509,1.9
			c-0.057-1.061-0.246-1.971-0.554-2.913h4.301c0.244-1.416,1.112-2.071,2.623-2.071c1.078,0,2.529,0.43,2.529,1.633
			C86.227,12.244,85.731,12.489,84.836,12.707z"/>
		<rect x="92.726" y="0.606" fill="#111111" width="5.188" height="22.178"/>
	</g>
	<path fill="#111111" d="M33.562,23.225c0-0.862,1.378-4.736,1.686-5.602l4.136-11.118H33.83l-3.025,10.38h-0.063l-3.023-10.38
		h-3.18V0.371h-8.326l-3.795,14.864h-0.064L8.56,0.371H0v22.178h5.428V5.797h0.14l4.627,16.751h4.384l4.628-16.751h-0.095v16.751
		h5.426v-9.7l4.429,13.005c1.233,3.519,3.244,3.774,6.762,3.774h0.652l1.788-4.249h-2.868C34.102,25.38,33.562,24.337,33.562,23.225
		z"/>
	<g>
		<path fill="#111111" d="M106.244,26V13.887h3.146v1.297c0.435-0.547,0.834-0.914,1.198-1.107c0.491-0.257,1.032-0.388,1.627-0.388
			c1.173,0,2.083,0.448,2.723,1.346c0.644,0.897,0.965,2.007,0.965,3.331c0,1.458-0.351,2.573-1.052,3.341
			c-0.699,0.771-1.583,1.152-2.649,1.152c-0.519,0-0.99-0.087-1.42-0.265c-0.424-0.177-0.807-0.438-1.144-0.783V26H106.244z
			 M109.615,18.301c0,0.692,0.145,1.204,0.437,1.543c0.291,0.337,0.661,0.503,1.106,0.503c0.392,0,0.721-0.16,0.982-0.483
			c0.266-0.319,0.398-0.867,0.398-1.638c0-0.713-0.137-1.232-0.414-1.567c-0.277-0.334-0.61-0.498-1.007-0.498
			c-0.431,0-0.787,0.166-1.074,0.502C109.759,17,109.615,17.543,109.615,18.301z"/>
		<path fill="#111111" d="M116.631,10.549H120v12.113h-3.369V10.549z"/>
	</g>
	<path fill="#111111" d="M103.817,21.074c0,1.05-0.854,1.902-1.902,1.902c-1.052,0-1.903-0.853-1.903-1.902
		c0-1.054,0.852-1.903,1.903-1.903C102.964,19.171,103.817,20.021,103.817,21.074z"/>
</g>
</svg>
